<?xml version="1.0" encoding="utf-8"?>
<!-- Generator: Adobe Illustrator 26.5.0, SVG Export Plug-In . SVG Version: 6.00 Build 0)  -->
<svg version="1.1" id="Layer_1" xmlns="http://www.w3.org/2000/svg" xmlns:xlink="http://www.w3.org/1999/xlink" x="0px" y="0px"
	 viewBox="0 0 36 18" style="enable-background:new 0 0 36 18;" xml:space="preserve">
<style type="text/css">
	.st0{fill:#E30A17;}
	.st1{fill:#FFFFFF;}
</style>
<g>
	<path class="st0" d="M0,0h36v18H0V0z"/>
	<path class="st1" d="M17,9l4.1-1.3l-2.5,3.5V6.9l2.5,3.5L17,9z M17.3,11.4c-1.3,2.1-4.1,2.7-6.2,1.4S8.4,8.7,9.7,6.6
		s4.1-2.7,6.2-1.4c0.6,0.4,1,0.8,1.4,1.4C16,5.1,13.7,5,12.2,6.3s-1.6,3.6-0.3,5.1s3.6,1.6,5.1,0.3C17.1,11.6,17.2,11.5,17.3,11.4z"
		/>
</g>
</svg>
