<?xml version="1.0" encoding="utf-8"?>
<!-- Generator: Adobe Illustrator 26.5.0, SVG Export Plug-In . SVG Version: 6.00 Build 0)  -->
<svg version="1.1" id="Layer_1" xmlns="http://www.w3.org/2000/svg" xmlns:xlink="http://www.w3.org/1999/xlink" x="0px" y="0px"
	 viewBox="0 0 1080 336.4" style="enable-background:new 0 0 1080 336.4;" xml:space="preserve">
<style type="text/css">
	.st0{fill:#FDFEFF;}
</style>
<g>
	<g>
		<g>
			<path class="st0" d="M0,305.4V197.3c0-1.1,0.5-1.6,1.6-1.6h32.3c9.9,0,17.7,2.8,23.6,8.4c5.9,5.6,8.8,13.1,8.8,22.4v49.6
				c0,9.3-2.9,16.8-8.8,22.4c-5.9,5.6-13.8,8.4-23.6,8.4H1.6C0.5,307,0,306.4,0,305.4z M15.9,293.8l18.3-0.2c5.1,0,9.1-1.7,12.2-5.2
				c3-3.4,4.6-8.1,4.7-13.9v-46.4c0-5.9-1.5-10.6-4.6-14.1c-3.1-3.4-7.2-5.2-12.4-5.2H15.9c-0.4,0-0.6,0.2-0.6,0.6v83.6
				C15.3,293.6,15.5,293.8,15.9,293.8z"/>
			<path class="st0" d="M148,208.9h-46.1c-0.4,0-0.6,0.2-0.6,0.6v34.3c0,0.4,0.2,0.6,0.6,0.6h30.4c1.1,0,1.6,0.5,1.6,1.6v10
				c0,1.1-0.5,1.6-1.6,1.6h-30.4c-0.4,0-0.6,0.2-0.6,0.6v34.8c0,0.4,0.2,0.6,0.6,0.6H148c1.1,0,1.6,0.5,1.6,1.6v10
				c0,1.1-0.5,1.6-1.6,1.6H87.6c-1.1,0-1.6-0.5-1.6-1.6V197.3c0-1.1,0.5-1.6,1.6-1.6H148c1.1,0,1.6,0.5,1.6,1.6v10
				C149.6,208.3,149.1,208.9,148,208.9z"/>
			<path class="st0" d="M230.5,195.7h12.1c1.1,0,1.6,0.5,1.6,1.6v108.1c0,1.1-0.5,1.6-1.6,1.6h-12.1c-1.1,0-1.6-0.5-1.6-1.6v-80.1
				c0-0.3-0.1-0.5-0.3-0.6c-0.2-0.1-0.4,0.1-0.5,0.4l-18.9,31.3c-0.5,0.7-1.2,1.1-1.9,1.1h-2.5c-0.7,0-1.4-0.4-1.9-1.1l-19.1-31
				c-0.1-0.3-0.3-0.4-0.5-0.4c-0.2,0.1-0.3,0.2-0.3,0.6v79.8c0,1.1-0.5,1.6-1.6,1.6h-12.1c-1.1,0-1.6-0.5-1.6-1.6V197.3
				c0-1.1,0.5-1.6,1.6-1.6h12.1c0.7,0,1.4,0.4,1.9,1.1l22.3,35.9c0.1,0.1,0.3,0.2,0.5,0.2c0.2,0,0.4-0.1,0.5-0.2l22.1-35.9
				C229.1,196,229.8,195.7,230.5,195.7z"/>
			<path class="st0" d="M267.2,180.1c-1.9-1.9-2.9-4.3-2.9-7.3c0-3,1-5.4,2.9-7.3c1.9-1.9,4.3-2.9,7.3-2.9c3,0,5.4,1,7.3,2.9
				c1.9,1.9,2.9,4.3,2.9,7.3c0,3-1,5.4-2.9,7.3c-1.9,1.9-4.3,2.9-7.3,2.9C271.6,183,269.1,182,267.2,180.1z M266.9,305.4V197.3
				c0-1.1,0.5-1.6,1.6-1.6h12.1c1.1,0,1.6,0.5,1.6,1.6v108.1c0,1.1-0.5,1.6-1.6,1.6h-12.1C267.4,307,266.9,306.4,266.9,305.4z"/>
			<path class="st0" d="M357.1,305.7l-18.4-47.4c-0.1-0.3-0.3-0.5-0.6-0.5h-17c-0.4,0-0.6,0.2-0.6,0.6v46.9c0,1.1-0.5,1.6-1.6,1.6
				h-12.1c-1.1,0-1.6-0.5-1.6-1.6V197.3c0-1.1,0.5-1.6,1.6-1.6h35.6c8.9,0,16.1,2.9,21.5,8.7c5.4,5.8,8.1,13.5,8.1,22.9
				c0,7.1-1.6,13.2-4.9,18.3c-3.3,5.1-7.8,8.6-13.5,10.5c-0.3,0.1-0.4,0.4-0.3,0.8l19.4,48.2l0.2,0.6c0,0.8-0.5,1.3-1.4,1.3h-12.4
				C358,307,357.4,306.5,357.1,305.7z M320.3,209.5v35.6c0,0.4,0.2,0.6,0.6,0.6h19.2c4.9,0,8.8-1.7,11.8-5c3-3.3,4.5-7.8,4.5-13.3
				c0-5.6-1.5-10.1-4.5-13.5c-3-3.4-6.9-5.1-11.9-5.1H321C320.5,208.9,320.3,209.1,320.3,209.5z"/>
			<path class="st0" d="M453.6,197.3v10.2c0,1.1-0.5,1.6-1.6,1.6h-25.6c-0.4,0-0.6,0.2-0.6,0.6v95.7c0,1.1-0.5,1.6-1.6,1.6h-12.1
				c-1.1,0-1.6-0.5-1.6-1.6v-95.7c0-0.4-0.2-0.6-0.6-0.6h-24.5c-1.1,0-1.6-0.5-1.6-1.6v-10.2c0-1.1,0.5-1.6,1.6-1.6H452
				C453,195.7,453.6,196.2,453.6,197.3z"/>
			<path class="st0" d="M512.2,305.5l-4.8-18.4c-0.1-0.3-0.4-0.5-0.8-0.5h-35.1c-0.5,0-0.8,0.2-0.8,0.5l-4.6,18.4
				c-0.1,1-0.7,1.4-1.7,1.4H452c-0.5,0-0.9-0.2-1.2-0.5c-0.3-0.3-0.3-0.7-0.2-1.3l29.4-108.1c0.2-1,0.8-1.4,1.7-1.4h14.9
				c1,0,1.5,0.5,1.7,1.4l29.6,108.1l0.2,0.5c0,0.8-0.5,1.3-1.6,1.3H514C513,307,512.4,306.5,512.2,305.5z M474.1,274.3
				c0.2,0.2,0.3,0.2,0.6,0.2h28.8c0.2,0,0.4-0.1,0.6-0.2c0.2-0.2,0.2-0.3,0.1-0.4l-14.8-57.5c-0.1-0.2-0.2-0.3-0.3-0.3
				c-0.1,0-0.2,0.1-0.3,0.3L474,273.9C473.9,274,474,274.1,474.1,274.3z"/>
			<path class="st0" d="M597.7,298.4c-4.8,5.2-11.5,8.3-20,9.4c-0.6,0.2-0.7,0.5-0.2,0.8c4.6,4.6,6.8,9.3,6.8,14.3
				c0,4.9-1.3,8.3-3.9,10.4c-2.6,2.1-5.9,3.1-9.8,3.1c-2.1,0-4.5-0.3-7-1c-1-0.3-1.4-1-1.3-1.9l0.8-5.1c0.1-0.4,0.3-0.8,0.6-1
				c0.3-0.3,0.7-0.3,1.3-0.2c1,0.3,1.9,0.5,2.7,0.5c1.5,0,2.8-0.4,3.8-1.3c1.1-0.8,1.8-2.1,2.2-3.8l0.2-1.4c0-2.1-0.7-4.3-2.1-6.5
				c-1.4-2.2-3.3-4.3-5.6-6.4c-0.1-0.2-0.4-0.3-0.8-0.3c-8.5-1.2-15.2-4.4-20.3-9.6c-5-5.2-7.6-11.8-7.6-19.8v-4.3
				c0-1.1,0.5-1.6,1.6-1.6H551c1.1,0,1.6,0.5,1.6,1.6v3.5c0,5.2,1.8,9.4,5.3,12.6c3.5,3.2,8.3,4.8,14.4,4.8c5.4,0,9.7-1.5,12.8-4.4
				c3.1-2.9,4.7-6.8,4.7-11.5c0-3.2-0.8-5.9-2.4-8.3c-1.6-2.3-3.9-4.5-6.9-6.5c-3-2-7.4-4.6-13.1-7.6c-6.5-3.4-11.6-6.4-15.5-9.1
				c-3.9-2.6-7.1-6-9.6-10c-2.5-4-3.8-8.9-3.8-14.6c0-8.9,2.9-15.9,8.7-21c5.8-5.1,13.6-7.6,23.2-7.6c6.7,0,12.6,1.3,17.6,3.8
				s9,6.1,11.8,10.7c2.8,4.6,4.2,9.9,4.2,16v3.7c0,1.1-0.5,1.6-1.6,1.6h-11.9c-1.1,0-1.6-0.5-1.6-1.6v-3.3c0-5.2-1.7-9.4-5.1-12.7
				c-3.4-3.3-8-4.9-13.8-4.9c-5.2,0-9.2,1.3-12.2,4c-2.9,2.7-4.4,6.4-4.4,11.3c0,3.2,0.7,5.9,2.1,8.1c1.4,2.2,3.6,4.3,6.6,6.3
				c3,2,7.4,4.4,13.2,7.4c7.3,4.1,12.9,7.5,16.6,10.2c3.8,2.7,6.8,5.9,9.2,9.7c2.4,3.8,3.6,8.4,3.6,13.8
				C604.9,286.5,602.5,293.2,597.7,298.4z"/>
			<path class="st0" d="M661.7,299.1c-5.7-5.2-8.6-12-8.6-20.5v-4.3c0-1.1,0.5-1.6,1.6-1.6h4.9c1.1,0,1.6,0.5,1.6,1.6v3.8
				c0,6.4,2.1,11.5,6.4,15.4c4.3,3.9,10,5.9,17.2,5.9c6.9,0,12.3-1.8,16.3-5.5c4-3.7,6-8.6,6-14.7c0-3.9-0.9-7.3-2.7-10.3
				s-4.4-5.6-7.9-8c-3.4-2.4-8.3-5.4-14.7-8.7c-6.8-3.7-12-6.9-15.6-9.5c-3.6-2.6-6.5-5.7-8.7-9.4s-3.3-8.2-3.3-13.6
				c0-8.4,2.6-14.9,7.9-19.6c5.2-4.7,12.3-7.1,21.2-7.1c9.6,0,17.3,2.6,22.9,7.9c5.6,5.2,8.4,12.2,8.4,20.9v3.8
				c0,1.1-0.5,1.6-1.6,1.6h-5.2c-1.1,0-1.6-0.5-1.6-1.6v-3.5c0-6.6-2.1-11.8-6.2-15.7c-4.1-3.9-9.8-5.9-16.9-5.9
				c-6.5,0-11.5,1.7-15.2,5c-3.7,3.3-5.5,8.1-5.5,14.2c0,3.9,0.8,7.2,2.5,9.9c1.6,2.7,4,5,7.2,7.2c3.1,2.1,7.9,4.9,14.4,8.4
				c7.1,3.9,12.6,7.3,16.6,10.2c4,2.9,7,6.1,9.2,9.8c2.2,3.7,3.3,8.1,3.3,13.3c0,8.6-2.8,15.5-8.3,20.7c-5.6,5.2-13.1,7.8-22.5,7.8
				C675.1,306.8,667.5,304.2,661.7,299.1z"/>
			<path class="st0" d="M736.6,176c-1.5-1.5-2.2-3.4-2.2-5.7c0-2.3,0.7-4.2,2.2-5.7c1.5-1.5,3.4-2.2,5.7-2.2c2.3,0,4.2,0.7,5.7,2.2
				c1.5,1.5,2.2,3.4,2.2,5.7c0,2.3-0.7,4.2-2.2,5.7c-1.5,1.5-3.4,2.2-5.7,2.2C740,178.2,738.1,177.5,736.6,176z M738.2,304V195.9
				c0-1.1,0.5-1.6,1.6-1.6h5.2c1.1,0,1.6,0.5,1.6,1.6V304c0,1.1-0.5,1.6-1.6,1.6h-5.2C738.7,305.6,738.2,305,738.2,304z"/>
			<path class="st0" d="M777.6,299.1c-5.7-5.2-8.6-12-8.6-20.5v-4.3c0-1.1,0.5-1.6,1.6-1.6h4.9c1.1,0,1.6,0.5,1.6,1.6v3.8
				c0,6.4,2.1,11.5,6.4,15.4c4.3,3.9,10,5.9,17.2,5.9c6.9,0,12.3-1.8,16.3-5.5s6-8.6,6-14.7c0-3.9-0.9-7.3-2.7-10.3s-4.4-5.6-7.9-8
				c-3.4-2.4-8.3-5.4-14.7-8.7c-6.8-3.7-12-6.9-15.6-9.5c-3.6-2.6-6.5-5.7-8.7-9.4s-3.3-8.2-3.3-13.6c0-8.4,2.6-14.9,7.9-19.6
				c5.2-4.7,12.3-7.1,21.2-7.1c9.6,0,17.3,2.6,22.9,7.9c5.6,5.2,8.4,12.2,8.4,20.9v3.8c0,1.1-0.5,1.6-1.6,1.6h-5.2
				c-1.1,0-1.6-0.5-1.6-1.6v-3.5c0-6.6-2.1-11.8-6.2-15.7c-4.1-3.9-9.8-5.9-16.9-5.9c-6.5,0-11.5,1.7-15.2,5
				c-3.7,3.3-5.5,8.1-5.5,14.2c0,3.9,0.8,7.2,2.5,9.9c1.6,2.7,4,5,7.2,7.2c3.1,2.1,7.9,4.9,14.4,8.4c7.1,3.9,12.6,7.3,16.6,10.2
				c4,2.9,7,6.1,9.2,9.8c2.2,3.7,3.3,8.1,3.3,13.3c0,8.6-2.8,15.5-8.3,20.7c-5.6,5.2-13.1,7.8-22.5,7.8
				C791,306.8,783.4,304.2,777.6,299.1z"/>
			<path class="st0" d="M907.4,195.9v4.3c0,1.1-0.5,1.6-1.6,1.6h-26.4c-0.4,0-0.6,0.2-0.6,0.6V304c0,1.1-0.5,1.6-1.6,1.6h-5.2
				c-1.1,0-1.6-0.5-1.6-1.6V202.4c0-0.4-0.2-0.6-0.6-0.6h-25c-1.1,0-1.6-0.5-1.6-1.6v-4.3c0-1.1,0.5-1.6,1.6-1.6h61
				C906.8,194.3,907.4,194.8,907.4,195.9z"/>
			<path class="st0" d="M986.4,201.8h-48.8c-0.4,0-0.6,0.2-0.6,0.6v43.1c0,0.4,0.2,0.6,0.6,0.6h33.4c1.1,0,1.6,0.5,1.6,1.6v4.3
				c0,1.1-0.5,1.6-1.6,1.6h-33.4c-0.4,0-0.6,0.2-0.6,0.6v43.2c0,0.4,0.2,0.6,0.6,0.6h48.8c1.1,0,1.6,0.5,1.6,1.6v4.3
				c0,1.1-0.5,1.6-1.6,1.6h-56.3c-1.1,0-1.6-0.5-1.6-1.6V195.9c0-1.1,0.5-1.6,1.6-1.6h56.3c1.1,0,1.6,0.5,1.6,1.6v4.3
				C988,201.2,987.4,201.8,986.4,201.8z"/>
			<path class="st0" d="M1072.8,194.3h5.6c1.1,0,1.6,0.5,1.6,1.6V304c0,1.1-0.5,1.6-1.6,1.6h-5.2c-1.1,0-1.6-0.5-1.6-1.6v-91.7
				c0-0.3-0.1-0.5-0.3-0.6c-0.2-0.1-0.4,0.1-0.5,0.4l-22.7,41c-0.3,0.7-1,1.1-1.9,1.1h-1.3c-0.7,0-1.4-0.4-1.9-1.1l-22.9-40.7
				c-0.1-0.3-0.3-0.4-0.5-0.4c-0.2,0.1-0.3,0.2-0.3,0.6V304c0,1.1-0.5,1.6-1.6,1.6h-5.2c-1.1,0-1.6-0.5-1.6-1.6V195.9
				c0-1.1,0.5-1.6,1.6-1.6h5.4c0.7,0,1.4,0.4,1.9,1.1l25.3,44.8c0.1,0.1,0.3,0.2,0.5,0.2c0.2,0,0.4-0.1,0.5-0.2l25-44.8
				C1071.5,194.7,1072.1,194.3,1072.8,194.3z"/>
			<path class="st0" d="M629.9,320.7c-1.4,0-2.5-1.1-2.5-2.5V192.5c0-1.4,1.1-2.5,2.5-2.5c1.4,0,2.5,1.1,2.5,2.5v125.7
				C632.4,319.6,631.3,320.7,629.9,320.7z"/>
		</g>
	</g>
	<g>
		<path class="st0" d="M609.4,81.3L609.4,81.3c0-1.3-1.4-2.1-2.5-1.5c-2.7,1.3-5.4,2.5-8,3.9c-2.1,1-4.1,2.1-6.2,3.1l0,0
			c-0.1,0-0.2,0.1-0.2,0.1c-3.7,1.9-7.4,3.7-11.2,5.6l-4.5,2.3c-9.6,4.8-19.3,9.6-28.9,14.4c-0.8,0.4-1.8-0.2-1.8-1.1l0-19
			c0-1,0.6-2,1.6-2.4c0.5-0.2,1.1-0.5,1.6-0.7c16.3-8.2,32.7-16.4,49-24.6c7.1-3.6,11.2-9.3,11.2-17.3c0-8-4-13.8-11.1-17.4
			C581.9,18.4,565.5,10.1,549,2c-0.3-0.2-0.7-0.3-1-0.5c-5.1-2.1-10.9-2.1-16,0c-0.4,0.2-0.8,0.3-1.2,0.5
			c-16.5,8.1-32.9,16.4-49.4,24.6c-7.1,3.6-11.1,9.4-11.1,17.4V116c0,0,0,0,0,0c0,0.2,0,0.5,0,0.7c0,0.5,0,0.9,0,1.4
			c0,0,0,0.1,0,0.1c0,0,0,0,0,0c0.4,7,3.6,12.6,10.1,15.9c17.1,8.7,34.3,17.3,51.5,25.8c2.4,1.2,5.1,1.7,7.8,2.5
			c2.6-0.8,5.4-1.2,7.7-2.4c17.5-8.6,35-17.2,52.3-26.2c5.8-3,8.9-8,9.5-14.2c0.1-0.5,0.1-1,0.1-1.4c0,0,0-0.1,0-0.1
			c0-0.1,0-0.2,0-0.4C609.5,105.5,609.8,93.4,609.4,81.3z M533.9,123.3v9.9c0,6.2-6.5,10.2-12,7.4l-35.6-17.8
			c-1.9-1.2-3-2.9-3.1-5.3c0-0.1,0-0.1,0-0.2V65.7c0-1.7,1.8-2.8,3.3-2.1c14.8,7.4,29.5,14.8,44.3,22.2c0.1,0,0.1,0.1,0.2,0.1
			c0,0,0.1,0,0.1,0.1c0,0-0.1,0-0.1,0c1.9,1.6,3,3.9,3,6.4V110c0,0,0,0,0,0L533.9,123.3z M596.9,115.7c0,0.1,0,0.2,0,0.4
			c0,0.1,0,0.2,0,0.2c0.1,3.3-1.2,5.6-4.1,7c-14.7,7.3-29.4,14.7-44.1,21.9c-1.2,0.6-2.5-0.3-2.5-1.6l0-18.3c0-1.3,0.8-2.5,1.9-3.1
			c15.6-7.6,33.7-16,48.8-23.7V115.7z"/>
		<path class="st0" d="M514.8,97.3l-14-6.9c-1.5-0.8-3.4,0.4-3.4,2.1v17.2c0,0.8,0.5,1.5,1.2,1.9l13.4,6.7c2.1,1,4.5-0.5,4.5-2.8
			v-15.3c0-0.9-0.4-1.8-1.1-2.4C515.3,97.5,515.1,97.4,514.8,97.3z"/>
	</g>
</g>
</svg>
